#N canvas 346 161 587 493 10;
#X obj 486 539 biquad~;
#X obj 6 2 inlet~;
#X msg 78 2 44100;
#X text 121 3 Sample Rate;
#X obj 28 62 inlet;
#X text 38 45 f0;
#X obj 347 63 inlet;
#X obj 109 53 inlet;
#X text 112 36 Gain;
#X obj 109 99 expr sqrt(10^($f1/20)), f 9;
#X obj 28 186 s w0;
#X obj 219 79 r w0;
#X obj 203 158 s alpha;
#X text 129 607 b0;
#X obj 153 248 r alpha;
#X text 128 398 a1;
#X obj 153 376 r w0;
#X obj 153 289 s a0, f 5;
#X obj 153 418 s a1, f 5;
#X obj 326 240 /;
#X obj 358 269 /;
#X obj 391 297 /;
#X obj 423 350 /;
#X obj 376 223 r a0;
#X obj 409 269 r a0;
#X obj 441 328 r a0;
#X obj 152 490 s b2;
#X obj 474 393 r a0;
#X obj 456 413 /;
#X text 470 354 ff3;
#X text 442 294 ff2;
#X text 430 233 ff1;
#X text 331 312 fb2;
#X text 304 266 fb1;
#X obj 487 612 outlet~;
#X text 219 3 INPUTS: Signal \, Center Freq \, Gain \, Bandwidth;
#X floatatom 38 162 5 0 0 0 - - -, f 5;
#X msg 587 94;
#X floatatom 581 35 5 0 0 0 - - -, f 5;
#X obj 593 73 print;
#X obj 28 109 expr 2*3.14*$f1/44100, f 9;
#X floatatom 581 114 5 0 0 0 - - -, f 5;
#X floatatom 109 150 5 0 0 0 - - -, f 5;
#X obj 581 52 expr ln(2)*3.14*sinh($f1);
#X floatatom 218 140 5 0 0 0 - - -, f 5;
#X obj 498 569 env~;
#X floatatom 498 590 5 0 0 0 - - -, f 5;
#X obj 326 478 print;
#X obj 485 450 r~ input;
#X obj 7 25 s~ input;
#X obj 445 479 env~;
#X floatatom 445 500 5 0 0 0 - - -, f 5;
#X msg 550 529 1.4 -0.908 1 -1.4 1;
#X obj 541 232 r b0;
#X floatatom 541 262 5 0 0 0 - - -, f 5;
#X floatatom 585 262 5 0 0 0 - - -, f 5;
#X obj 585 232 r b1;
#X floatatom 761 261 5 0 0 0 - - -, f 5;
#X floatatom 670 262 5 0 0 0 - - -, f 5;
#X floatatom 714 262 5 0 0 0 - - -, f 5;
#X obj 761 231 r a0;
#X obj 670 231 r a1;
#X obj 714 230 r a2;
#X floatatom 628 262 5 0 0 0 - - -, f 5;
#X obj 628 232 r b2;
#X floatatom 40 90 5 0 0 0 - - -, f 5;
#X floatatom 121 79 5 0 0 0 - - -, f 5;
#X text 890 47 http://www.earlevel.com/main/2013/10/13/biquad-calculator-v2/
, f 26;
#X text 889 107 http://ethanwiner.com/eq-dsp.htm;
#X text 893 19 Links:;
#X obj 464 141 expr sin($f1)*sinh( (ln(2)/2) * $f2 * $f1/sin($f1))
, f 30;
#X obj 203 105 expr sin($f1)/(2*$f2);
#X obj 203 58 bng 15 250 50 0 empty empty empty 17 7 0 10 -262144 -1
-1;
#X floatatom 359 92 5 0 0 0 - - -, f 5;
#X obj 153 268 expr 1 + $f1;
#X text 129 269 a0;
#X obj 153 313 r alpha;
#X text 129 334 a2;
#X obj 153 333 expr 1 - $f1;
#X text 129 541 b1;
#X text 130 467 b2;
#X obj 152 603 expr (1 + cos($f1))/2;
#X obj 152 624 s b0, f 5;
#X text 359 45 Q;
#X obj 152 583 r w0;
#X obj 152 517 r w0;
#X obj 152 558 s b1, f 5;
#X obj 152 443 r w0;
#X obj 152 466 expr (1 + cos($f1))/2;
#X obj 4 78 bng 15 250 50 0 empty empty empty 17 7 0 10 -262144 -1
-1;
#X obj 326 158 r b0;
#X obj 358 204 r b1;
#X obj 391 249 r b2;
#X obj 423 310 r a1;
#X obj 456 373 r a2;
#X obj 153 354 s a2, f 5;
#X obj 344 179 r a0;
#X obj 18 238 t b b b b b b;
#X obj 18 209 bng 15 250 50 0 empty empty empty 17 7 0 10 -262144 -1
-1;
#X obj 326 446 pack f f f f f, f 19;
#X msg 515 506 1 -0.3 0.56 -0.96 0.34;
#X floatatom 289 291 5 0 0 0 - - -, f 5;
#X floatatom 343 337 5 0 0 0 - - -, f 5;
#X floatatom 384 372 5 0 0 0 - - -, f 5;
#X floatatom 415 403 5 0 0 0 - - -, f 5;
#X floatatom 494 432 5 0 0 0 - - -, f 5;
#X obj 153 397 expr -2*cos($f1);
#X obj 152 537 expr -(1 + cos($f1));
#X connect 0 0 34 0;
#X connect 0 0 45 0;
#X connect 1 0 49 0;
#X connect 4 0 40 0;
#X connect 4 0 65 0;
#X connect 6 0 71 1;
#X connect 6 0 73 0;
#X connect 7 0 9 0;
#X connect 7 0 66 0;
#X connect 9 0 42 0;
#X connect 11 0 71 0;
#X connect 14 0 74 0;
#X connect 16 0 106 0;
#X connect 19 0 99 0;
#X connect 19 0 101 0;
#X connect 20 0 99 1;
#X connect 20 0 102 0;
#X connect 21 0 99 2;
#X connect 21 0 103 0;
#X connect 22 0 99 3;
#X connect 22 0 104 0;
#X connect 23 0 20 1;
#X connect 24 0 21 1;
#X connect 25 0 22 1;
#X connect 27 0 28 1;
#X connect 28 0 99 4;
#X connect 28 0 105 0;
#X connect 38 0 43 0;
#X connect 40 0 36 0;
#X connect 40 0 10 0;
#X connect 43 0 37 0;
#X connect 43 0 39 0;
#X connect 43 0 41 0;
#X connect 45 0 46 0;
#X connect 48 0 50 0;
#X connect 48 0 0 0;
#X connect 50 0 51 0;
#X connect 53 0 54 0;
#X connect 56 0 55 0;
#X connect 60 0 57 0;
#X connect 61 0 58 0;
#X connect 62 0 59 0;
#X connect 64 0 63 0;
#X connect 71 0 12 0;
#X connect 71 0 44 0;
#X connect 72 0 71 0;
#X connect 74 0 17 0;
#X connect 76 0 78 0;
#X connect 78 0 95 0;
#X connect 81 0 82 0;
#X connect 84 0 81 0;
#X connect 85 0 107 0;
#X connect 87 0 88 0;
#X connect 88 0 26 0;
#X connect 89 0 40 0;
#X connect 90 0 19 0;
#X connect 91 0 20 0;
#X connect 92 0 21 0;
#X connect 93 0 22 0;
#X connect 94 0 28 0;
#X connect 96 0 19 1;
#X connect 97 0 81 0;
#X connect 97 1 107 0;
#X connect 97 2 88 0;
#X connect 97 3 106 0;
#X connect 97 4 78 0;
#X connect 97 5 74 0;
#X connect 98 0 97 0;
#X connect 99 0 47 0;
#X connect 99 0 0 0;
#X connect 100 0 0 0;
#X connect 106 0 18 0;
#X connect 107 0 86 0;
