#N canvas 15 89 677 529 10;
#X obj 51 57 adc~;
#X obj 51 403 dac~;
#X obj 50 191 r~ DRY_OUT;
#X obj 51 362 *~;
#X obj 50 155 s~ DRY_OUT;
#X obj 68 225 vsl 15 128 0.05 5 1 0 empty empty Dry_Gain 0 -9 0 10
-262144 -1 -1 0 1;
#X floatatom 81 363 5 0 0 0 - - -, f 5;
#X obj 180 426 dac~;
#X obj 180 385 *~;
#X obj 198 247 vsl 15 128 0.05 5 1 0 empty empty EQ_Gain 0 -9 0 10
-262144 -1 -1 0 1;
#X floatatom 210 386 5 0 0 0 - - -, f 5;
#X floatatom 619 22 5 0 0 0 - - -, f 5;
#X floatatom 691 51 5 0 0 0 - - -, f 5;
#X obj 179 201 r~ EQ_OUT;
#X obj 595 86 Notch, f 11;
#X obj 612 122 env~;
#X floatatom 612 143 5 0 0 0 - - -, f 5;
#X obj 61 98 env~;
#X floatatom 61 122 5 0 0 0 - - -, f 5;
#X floatatom 644 47 5 0.01 10 0 - - -, f 5;
#X text 221 104 F - G - BW;
#X obj 174 174 s~ EQ_OUT;
#X floatatom 217 90 5 0 0 0 - - -, f 5;
#X floatatom 260 90 5 0 0 0 - - -, f 5;
#X floatatom 304 90 5 0 0 0 - - -, f 5;
#X obj 217 64 unpack \$1 \$2 \$3;
#X obj 217 21 loadbang;
#X obj 412 71 biquad~;
#X obj 413 103 dac~;
#X msg 412 20 -0.5 0.5 0 1 1;
#X msg 421 45 1.4 -0.908 1 -1.4 1;
#X obj 249 155 env~;
#X floatatom 249 177 5 0 0 0 - - -, f 5;
#X obj 174 123 BAND_V2, f 19;
#X msg 217 42 5512 1 0.707;
#X connect 0 0 4 0;
#X connect 0 0 17 0;
#X connect 0 0 33 0;
#X connect 2 0 3 0;
#X connect 3 0 1 0;
#X connect 3 0 1 1;
#X connect 5 0 6 0;
#X connect 5 0 3 1;
#X connect 8 0 7 0;
#X connect 8 0 7 1;
#X connect 9 0 10 0;
#X connect 9 0 8 1;
#X connect 11 0 14 1;
#X connect 12 0 14 3;
#X connect 13 0 8 0;
#X connect 14 0 15 0;
#X connect 15 0 16 0;
#X connect 17 0 18 0;
#X connect 19 0 14 2;
#X connect 22 0 33 1;
#X connect 23 0 33 2;
#X connect 24 0 33 3;
#X connect 25 0 22 0;
#X connect 25 1 23 0;
#X connect 25 2 24 0;
#X connect 26 0 34 0;
#X connect 27 0 28 0;
#X connect 27 0 28 1;
#X connect 29 0 27 0;
#X connect 30 0 27 0;
#X connect 31 0 32 0;
#X connect 33 0 21 0;
#X connect 33 0 31 0;
#X connect 34 0 25 0;
