#N canvas 370 121 802 529 10;
#X obj 51 57 adc~;
#X obj 51 403 dac~;
#X obj 50 191 r~ DRY_OUT;
#X obj 51 362 *~;
#X obj 50 155 s~ DRY_OUT;
#X obj 68 225 vsl 15 128 0.05 5 1 0 empty empty Dry_Gain 0 -9 0 10
-262144 -1 -1 0 1;
#X floatatom 81 363 5 0 0 0 - - -, f 5;
#X obj 185 426 dac~;
#X obj 185 385 *~;
#X obj 203 247 vsl 15 128 0.05 5 1 0 empty empty EQ_Gain 0 -9 0 10
-262144 -1 -1 12700 1;
#X floatatom 215 386 5 0 0 0 - - -, f 5;
#X floatatom 619 22 5 0 0 0 - - -, f 5;
#X floatatom 691 51 5 0 0 0 - - -, f 5;
#X obj 184 201 r~ EQ_OUT;
#X obj 595 86 Notch, f 11;
#X obj 612 122 env~;
#X floatatom 612 143 5 0 0 0 - - -, f 5;
#X obj 61 98 env~;
#X floatatom 61 122 5 0 0 0 - - -, f 5;
#X floatatom 644 47 5 0.01 10 0 - - -, f 5;
#X text 185 95 F - G - BW;
#X obj 138 142 s~ EQ_OUT;
#X floatatom 181 81 5 0 0 0 - - -, f 5;
#X floatatom 224 81 5 0 0 0 - - -, f 5;
#X floatatom 268 81 5 0 0 0 - - -, f 5;
#X obj 138 114 BAND, f 19;
#X msg 176 33 3000 1 1;
#X obj 176 55 unpack \$1 \$2 \$3;
#X obj 176 12 loadbang;
#X connect 0 0 4 0;
#X connect 0 0 17 0;
#X connect 0 0 25 0;
#X connect 2 0 3 0;
#X connect 3 0 1 0;
#X connect 3 0 1 1;
#X connect 5 0 6 0;
#X connect 5 0 3 1;
#X connect 8 0 7 0;
#X connect 8 0 7 1;
#X connect 9 0 10 0;
#X connect 9 0 8 1;
#X connect 11 0 14 1;
#X connect 12 0 14 3;
#X connect 13 0 8 0;
#X connect 14 0 15 0;
#X connect 15 0 16 0;
#X connect 17 0 18 0;
#X connect 19 0 14 2;
#X connect 22 0 25 1;
#X connect 23 0 25 2;
#X connect 24 0 25 3;
#X connect 25 0 21 0;
#X connect 26 0 27 0;
#X connect 27 0 22 0;
#X connect 27 1 23 0;
#X connect 27 2 24 0;
#X connect 28 0 26 0;
